<?xml version="1.0" encoding="UTF-8"?>
<svg version="1.1" xmlns="http://www.w3.org/2000/svg" width="1024" height="1024">
<path d="M0 0 C337.92 0 675.84 0 1024 0 C1024 337.92 1024 675.84 1024 1024 C686.08 1024 348.16 1024 0 1024 C0 686.08 0 348.16 0 0 Z " fill="#FEFEFE" transform="translate(0,0)"/>
<path d="M0 0 C33.72486251 -0.08831432 67.44961207 -0.16211979 101.17455557 -0.20426132 C105.16332696 -0.20926367 109.15209811 -0.214441 113.14086914 -0.21972656 C114.33192144 -0.22130043 114.33192144 -0.22130043 115.5470354 -0.22290608 C128.37487742 -0.24027338 141.20264715 -0.27179062 154.0304464 -0.30861118 C167.20985861 -0.34612325 180.38923316 -0.36825746 193.56869656 -0.37635398 C201.68985442 -0.38182056 209.81080789 -0.39903545 217.93190277 -0.43166587 C223.51389443 -0.45294079 229.09578166 -0.45917099 234.67781084 -0.45400551 C237.89012251 -0.45146367 241.10200823 -0.45738015 244.31427193 -0.4768219 C267.417823 -0.60971106 290.31210285 1.36381565 308 18 C308.93392578 18.85464844 308.93392578 18.85464844 309.88671875 19.7265625 C322.32695373 32.41839774 325.69383359 50.01983664 327 67 C361.155 67.495 361.155 67.495 396 68 C396 81.2 396 94.4 396 108 C373.23 108 350.46 108 327 108 C327 130.44 327 152.88 327 176 C349.77 176 372.54 176 396 176 C396 189.2 396 202.4 396 216 C373.23 216 350.46 216 327 216 C327 218.64 327 221.28 327 224 C324.66029083 241.5573298 318.58155743 257.41556092 304.75 269.0859375 C289.3262755 279.82120029 272.11417339 284.34918659 253.45855713 284.24050903 C252.3620791 284.24221788 251.26560108 284.24392673 250.13589644 284.24568737 C246.4971046 284.24895635 242.85850114 284.2380215 239.21972656 284.22705078 C236.59730026 284.22648611 233.97487363 284.22680432 231.35244751 284.22793579 C225.72465347 284.22897996 220.09690613 284.22275258 214.46912384 284.21146011 C206.33249531 284.19514421 198.19588915 284.1899909 190.05924603 284.18748413 C176.8552398 284.18311654 163.65125839 284.16983295 150.44726562 284.15087891 C137.62760542 284.1324958 124.80795199 284.11835122 111.98828125 284.10986328 C111.19689311 284.10933783 110.40550497 284.10881239 109.59013537 284.10827102 C105.61962007 284.10566077 101.64910472 284.1031334 97.67858934 284.10064721 C64.78570421 284.07994388 31.89286531 284.04308993 -1 284 C-1 262.22 -1 240.44 -1 218 C10.69195801 217.98598145 10.69195801 217.98598145 22.62011719 217.97167969 C47.54638016 217.93898727 72.47256501 217.8867122 97.39876442 217.82207905 C101.26909777 217.81206132 105.13943155 217.80221724 109.00976562 217.79248047 C109.78029499 217.7905391 110.55082436 217.78859772 111.34470311 217.78659752 C123.82885912 217.7555576 136.31299674 217.73859132 148.79718408 217.72680578 C161.60255649 217.71440452 174.40783221 217.68692638 187.21314359 217.64538693 C195.11778824 217.62022204 203.02227259 217.60688489 210.92695788 217.60857043 C216.98341101 217.60860364 223.03960475 217.58768302 229.09599686 217.55883217 C231.58409098 217.5502879 234.07221928 217.54861366 236.56032181 217.55419731 C239.94867834 217.5607905 243.3360472 217.54302809 246.7243042 217.51898193 C248.21262414 217.53062256 248.21262414 217.53062256 249.73101115 217.54249835 C254.98309244 217.52648094 254.98309244 217.52648094 259.56511688 215.21498299 C264.06781066 208.2643192 263.28677134 199.31242454 263.25878906 191.33935547 C263.2622937 190.10082825 263.26579834 188.86230103 263.26940918 187.58624268 C263.27666596 184.21442498 263.27501823 180.84285511 263.26865101 177.47105169 C263.26355731 173.92960136 263.26829157 170.38816099 263.27142334 166.84671021 C263.27505226 160.90380979 263.27029117 154.96095924 263.26074219 149.01806641 C263.24984966 142.16006382 263.25339331 135.3021801 263.264395 128.44418037 C263.27348659 122.53904484 263.27474431 116.63394498 263.26951766 110.72880471 C263.26640953 107.20921705 263.26595688 103.68968518 263.27259064 100.17010117 C263.27946934 96.24730598 263.2699208 92.32464282 263.25878906 88.40185547 C263.26486176 86.66547318 263.26486176 86.66547318 263.27105713 84.89401245 C263.24116508 79.20342014 262.93831337 74.36851115 261 69 C258.09560915 68.16955449 255.51110448 67.87162657 252.49414444 67.8613348 C251.13934915 67.85312313 251.13934915 67.85312313 249.75718427 67.84474558 C248.27470075 67.84327842 248.27470075 67.84327842 246.76226807 67.84178162 C245.70937741 67.83684364 244.65648675 67.83190566 243.57169032 67.82681805 C240.03249568 67.81142131 236.49331922 67.8030765 232.95410156 67.79467773 C230.42152241 67.78510093 227.88894487 67.77509096 225.35636902 67.76467896 C219.89816067 67.74321639 214.43995533 67.72477624 208.9817276 67.70907402 C201.09003902 67.68636602 193.19837718 67.65822447 185.30671129 67.62875474 C172.50315137 67.58109025 159.69958051 67.53782296 146.89599609 67.49731445 C134.45816191 67.45795372 122.02033745 67.4165261 109.58251953 67.37231445 C108.43260908 67.36822804 108.43260908 67.36822804 107.25946811 67.36405908 C103.41364421 67.35037951 99.56782046 67.33665925 95.72199678 67.32291877 C63.81468359 67.20897194 31.90735098 67.10296752 0 67 C0 44.89 0 22.78 0 0 Z " fill="#F37121" transform="translate(349,244)"/>
<path d="M0 0 C25.82548488 -0.06771598 51.65089791 -0.12298126 77.47644901 -0.15543652 C89.46764873 -0.17090647 101.45878937 -0.19199853 113.44995117 -0.22631836 C123.901242 -0.25621668 134.35249005 -0.27557407 144.80382246 -0.28226548 C150.33790249 -0.28617698 155.87186014 -0.2953724 161.40590096 -0.31719017 C166.61543253 -0.33756205 171.82479136 -0.34383233 177.03435898 -0.33932304 C178.94553377 -0.34014792 180.85671437 -0.34610934 182.76785469 -0.35761642 C185.3799175 -0.37257149 187.99133055 -0.36894265 190.60340881 -0.36076355 C191.35731763 -0.36950207 192.11122645 -0.3782406 192.887981 -0.38724393 C200.09588706 -0.32635882 205.79015385 1.93096051 211 7 C218.70015269 17.96202292 219.53222713 32.41231404 217.46875 45.32421875 C215.27069116 54.84515839 212.55277525 60.5181485 204.12109375 65.8359375 C199.79725551 68.20887267 195.87889639 68.13849675 191.08442688 68.12025452 C190.26923669 68.12110894 189.45404649 68.12196337 188.61415356 68.12284368 C185.87336216 68.12449523 183.1326315 68.11898239 180.3918457 68.11352539 C178.43083701 68.11324342 176.46982821 68.11340144 174.50881958 68.1139679 C169.17651346 68.1142555 163.84422971 68.10836477 158.5119288 68.10139394 C152.94253925 68.09515421 147.37314922 68.09455611 141.80375671 68.09336853 C131.253435 68.09025705 120.70312362 68.08204611 110.15280646 68.07201904 C98.14329325 68.06085224 86.13377956 68.05534602 74.12426245 68.05032361 C49.41616792 68.03986336 24.70808755 68.02152013 0 68 C0 45.56 0 23.12 0 0 Z " fill="#F37121" transform="translate(373,352)"/>
<path d="M0 0 C9.9 0 19.8 0 30 0 C39.91007009 12.70163913 39.91007009 12.70163913 42.484375 18.57421875 C45.80010346 25.82449133 49.84398983 32.46070753 54.125 39.1875 C55.45582616 41.33997794 56.78268358 43.49491496 58.10546875 45.65234375 C58.75177246 46.70405762 59.39807617 47.75577148 60.06396484 48.83935547 C61.98355349 51.9731505 63.8942045 55.11218001 65.80078125 58.25390625 C66.41356934 59.26364502 67.02635742 60.27338379 67.65771484 61.3137207 C68.78873117 63.17966492 69.91814834 65.04658011 71.04541016 66.91479492 C75.56422887 74.37357642 80.27788066 81.65448102 85 89 C85.33 59.63 85.66 30.26 86 0 C95.24 0 104.48 0 114 0 C114 44.88 114 89.76 114 136 C104.1 136 94.2 136 84 136 C79.65074134 129.16545068 75.31823598 122.32930789 71.0625 115.4375 C70.51456787 114.5511084 69.96663574 113.6647168 69.40209961 112.75146484 C67.60019337 109.83505276 65.7998567 106.91767737 64 104 C63.36320313 102.96794434 62.72640625 101.93588867 62.0703125 100.87255859 C54.20812941 88.12564466 46.37322052 75.36276261 38.60375977 62.55908203 C38.07065186 61.68106934 37.53754395 60.80305664 36.98828125 59.8984375 C36.30052612 58.76414307 36.30052612 58.76414307 35.59887695 57.60693359 C33.42184571 54.05733218 31.20693081 50.5310893 29 47 C28.67 76.37 28.34 105.74 28 136 C18.76 136 9.52 136 0 136 C0 91.12 0 46.24 0 0 Z " fill="#3C3C3E" transform="translate(642,590)"/>
<path d="M0 0 C9.9 0 19.8 0 30 0 C36.6037978 7.78553003 36.6037978 7.78553003 37.8984375 11.73046875 C40.16428858 17.78836222 43.54676322 22.91146779 47.0625 28.3125 C48.35728552 30.36440447 49.64754373 32.41917172 50.93359375 34.4765625 C51.59601074 35.53520508 52.25842773 36.59384766 52.94091797 37.68457031 C57.21073919 44.55962036 61.39234705 51.48859381 65.57446289 58.41723633 C71.96879889 68.99764939 78.49113298 79.48567635 85 90 C85.33 60.63 85.66 31.26 86 1 C94.91 1 103.82 1 113 1 C113 45.55 113 90.1 113 136 C103.1 136 93.2 136 83 136 C76.3962022 128.21446997 76.3962022 128.21446997 75.1015625 124.26953125 C72.83572093 118.21166321 69.45332352 113.08845845 65.9375 107.6875 C64.64398278 105.63822176 63.35502884 103.58605706 62.0703125 101.53125 C61.40805664 100.47292969 60.74580078 99.41460938 60.06347656 98.32421875 C55.75913313 91.39000908 51.54692395 84.39920165 47.33764648 77.40698242 C41.36196116 67.50908395 35.17917812 57.78369869 29 48 C28.67 77.04 28.34 106.08 28 136 C18.76 136 9.52 136 0 136 C0 91.12 0 46.24 0 0 Z " fill="#3B3B3C" transform="translate(413,590)"/>
<path d="M0 0 C33.33 0 66.66 0 101 0 C101 8.58 101 17.16 101 26 C77.57 26 54.14 26 30 26 C30 35.24 30 44.48 30 54 C51.45 54 72.9 54 95 54 C95 61.59 95 69.18 95 77 C73.22 77 51.44 77 29 77 C29 88.22 29 99.44 29 111 C52.76 111 76.52 111 101 111 C101 119.25 101 127.5 101 136 C67.67 136 34.34 136 0 136 C0 91.12 0 46.24 0 0 Z " fill="#3C3C3E" transform="translate(274,590)"/>
<path d="M0 0 C33.33 0 66.66 0 101 0 C101 8.58 101 17.16 101 26 C77.24 26 53.48 26 29 26 C29 35.24 29 44.48 29 54 C50.78 54 72.56 54 95 54 C95 61.59 95 69.18 95 77 C73.22 77 51.44 77 29 77 C29 88.22 29 99.44 29 111 C52.76 111 76.52 111 101 111 C101 119.25 101 127.5 101 136 C67.67 136 34.34 136 0 136 C0 91.12 0 46.24 0 0 Z " fill="#3B3B3D" transform="translate(799,590)"/>
<path d="M0 0 C10.23 0 20.46 0 31 0 C31.71712158 2.29775391 32.43424316 4.59550781 33.1730957 6.96289062 C35.61580416 14.78317042 38.07622677 22.59778739 40.54183006 30.41087341 C42.00015 35.03351879 43.45603685 39.65693128 44.91236401 44.28020477 C46.18185964 48.30989519 47.45222747 52.3393069 48.72436523 56.36816406 C49.97061771 60.31521407 51.21455123 64.26298825 52.45693398 68.21125793 C52.92613227 69.70093391 53.39615556 71.19035032 53.86705589 72.67948914 C58.36685621 86.91219023 58.36685621 86.91219023 60 94 C62.07038166 88.55452871 64.03443893 83.08970122 65.875 77.5625 C66.26679443 76.38699585 66.26679443 76.38699585 66.66650391 75.18774414 C68.56128961 69.44860776 70.29783088 63.67604027 71.97094727 57.86914062 C74.11036572 50.50160688 76.47536232 43.20936003 78.82958984 35.90820312 C82.66920148 23.97402998 86.33158484 11.98785667 90 0 C100.23 0 110.46 0 121 0 C115.23117809 21.15234701 108.40929357 41.83446726 101.27278137 62.55456543 C96.67772656 75.8970999 92.11007781 89.23936329 88.00976562 102.74365234 C86.02810316 109.13422632 83.87768863 115.46931946 81.75 121.8125 C80.1825 126.494375 78.615 131.17625 77 136 C65.78 136 54.56 136 43 136 C40.81238149 129.17236808 38.62512023 122.34462366 36.4387207 115.51660156 C35.69706029 113.20078179 34.95520334 110.88502495 34.21313477 108.56933594 C33.13764766 105.21306195 32.06276095 101.85659663 30.98828125 98.5 C30.63823029 97.40663834 30.28817932 96.31327667 29.92752075 95.18678284 C28.00167195 89.16255282 26.10047938 83.13161238 24.23046875 77.08984375 C22.29267082 70.86065379 20.19323038 64.70564226 18 58.5625 C15.38391262 51.14413721 12.94453793 43.71869496 10.79736328 36.15185547 C9.10673635 30.22966779 7.17234375 24.40277789 5.14208984 18.58862305 C3.02538377 12.41767768 1.60376297 6.41505187 0 0 Z " fill="#3C3C3D" transform="translate(124,590)"/>
<path d="M0 0 C9.57 0 19.14 0 29 0 C29 44.55 29 89.1 29 135 C19.43 135 9.86 135 0 135 C0 90.45 0 45.9 0 0 Z " fill="#39393B" transform="translate(570,591)"/>
<path d="M0 0 C2.97 0 5.94 0 9 0 C6.77332548 12.04524884 3.27476287 23.67483674 -0.22705078 35.39794922 C-1.17585013 38.59198063 -2.09358181 41.79371476 -3 45 C-5.31 45 -7.62 45 -10 45 C-12.69559598 38.01062861 -15.38475141 31.01987779 -18 24 C-20.96415819 30.9241798 -23.72564796 37.81783567 -26 45 C-28.31 45 -30.62 45 -33 45 C-35.20461837 38.60660674 -37.11669167 32.16561261 -38.94921875 25.65625 C-40.30823468 20.92748083 -41.77859309 16.23674485 -43.265625 11.546875 C-44 9 -44 9 -44 7 C-41.03 7 -38.06 7 -35 7 C-32.35968328 13.53792711 -30.61191652 20.14078075 -29 27 C-28.67386719 26.05898438 -28.34773438 25.11796875 -28.01171875 24.1484375 C-27.35623047 22.28058594 -27.35623047 22.28058594 -26.6875 20.375 C-26.25824219 19.14523437 -25.82898438 17.91546875 -25.38671875 16.6484375 C-24.11350007 13.29861709 -22.66342294 10.17074755 -21 7 C-19.02 7 -17.04 7 -15 7 C-12.69 13.27 -10.38 19.54 -8 26 C-5.54484655 23.54484655 -5.30483446 21.91127278 -4.4921875 18.5546875 C-4.22792969 17.47832031 -3.96367187 16.40195312 -3.69140625 15.29296875 C-3.42199219 14.16503906 -3.15257812 13.03710938 -2.875 11.875 C-2.59785156 10.73933594 -2.32070313 9.60367188 -2.03515625 8.43359375 C-1.35043342 5.62386903 -0.67234288 2.81270819 0 0 Z " fill="#3F3F41" transform="translate(507,764)"/>
<path d="M0 0 C2.64 0 5.28 0 8 0 C6.70217683 8.04310151 4.80524632 15.79681538 2.5625 23.625 C2.11293945 25.22601562 2.11293945 25.22601562 1.65429688 26.859375 C-0.07484626 32.96576334 -1.94217619 38.99644063 -4 45 C-6.31 45 -8.62 45 -11 45 C-12.17430074 41.7318568 -13.33811256 38.46007485 -14.5 35.1875 C-14.83386719 34.25873047 -15.16773438 33.32996094 -15.51171875 32.37304688 C-15.82753906 31.48037109 -16.14335937 30.58769531 -16.46875 29.66796875 C-16.76201172 28.84578857 -17.05527344 28.0236084 -17.35742188 27.17651367 C-18 25 -18 25 -18 22 C-18.66 22 -19.32 22 -20 22 C-20.226875 23.19625 -20.45375 24.3925 -20.6875 25.625 C-22.14819347 32.2887476 -24.62240483 38.62042213 -27 45 C-29.31 45 -31.62 45 -34 45 C-36.55633387 37.62202718 -38.66520905 30.16531656 -40.6875 22.625 C-41.00783203 21.45066406 -41.32816406 20.27632812 -41.65820312 19.06640625 C-42.11163086 17.38224609 -42.11163086 17.38224609 -42.57421875 15.6640625 C-42.98546997 14.13966553 -42.98546997 14.13966553 -43.4050293 12.58447266 C-44 10 -44 10 -44 7 C-41.03 7 -38.06 7 -35 7 C-33.35 13.6 -31.7 20.2 -30 27 C-29.4225 25.55625 -28.845 24.1125 -28.25 22.625 C-26.16666667 17.41666667 -24.08333333 12.20833333 -22 7 C-20.02 7 -18.04 7 -16 7 C-12.92163279 13.94395046 -10.37179687 20.51747162 -9 28 C-8.34 28 -7.68 28 -7 28 C-6.91363281 27.319375 -6.82726562 26.63875 -6.73828125 25.9375 C-5.43514327 16.94704349 -2.85622721 8.59048489 0 0 Z " fill="#3E3E40" transform="translate(454,764)"/>
<path d="M0 0 C3.37991574 0.3557806 6.04288438 1.35715799 9 3 C8.34 3.99 7.68 4.98 7 6 C7.2753749 7.67721721 7.62023758 9.34329562 8 11 C8.08028946 13.34911415 8.10765823 15.70031669 8.09765625 18.05078125 C8.0962413 18.70958786 8.09482635 19.36839447 8.09336853 20.04716492 C8.087805 22.13565762 8.07525947 24.22404011 8.0625 26.3125 C8.05748028 27.73502449 8.0529182 29.15755066 8.04882812 30.58007812 C8.03784757 34.05342077 8.02060835 37.52669961 8 41 C4.7 41 1.4 41 -2 41 C-2.03738281 40.01257813 -2.07476562 39.02515625 -2.11328125 38.0078125 C-2.17902344 36.72648438 -2.24476563 35.44515625 -2.3125 34.125 C-2.37050781 32.84882812 -2.42851562 31.57265625 -2.48828125 30.2578125 C-2.65714844 29.18273437 -2.82601563 28.10765625 -3 27 C-6.14611253 24.90259164 -6.91188078 24.74671781 -10.5 24.8125 C-11.66015625 24.82216797 -11.66015625 24.82216797 -12.84375 24.83203125 C-15.18348849 24.9269435 -15.18348849 24.9269435 -18 26 C-17.34 27.98 -16.68 29.96 -16 32 C-14.14375 31.8453125 -14.14375 31.8453125 -12.25 31.6875 C-8.67476315 31.66848278 -8.2525585 31.76006943 -5.5 34.375 C-4 37 -4 37 -4 39 C-9.003441 41.5017205 -13.37369185 43.18042151 -19 42 C-22.68172672 40.2457655 -25.28207477 38.15492319 -27.4375 34.6875 C-28.48409833 29.68708576 -28.99598489 25.72382 -26.375 21.1875 C-21.11136484 16.33941498 -16.46700562 15.57123579 -9.625 15.8125 C-8.88894531 15.82603516 -8.15289062 15.83957031 -7.39453125 15.85351562 C-5.59603257 15.88855131 -3.79791578 15.94234712 -2 16 C-2 14.68 -2 13.36 -2 12 C-5.71016634 10.81274677 -9.12790678 10.65427739 -13 11 C-13.598125 11.66 -14.19625 12.32 -14.8125 13 C-17.9982294 15.91266688 -20.78441403 15.30930117 -24.953125 15.140625 C-25.96632813 15.07101562 -25.96632813 15.07101562 -27 15 C-26.91802415 12.21282111 -26.43764605 10.48247233 -24.55078125 8.40234375 C-19.19866586 3.67715728 -15.07669347 1.71123703 -7.8125 2 C-4.73144339 2.16734544 -4.73144339 2.16734544 -2 2 C-1.34 1.34 -0.68 0.68 0 0 Z " fill="#404042" transform="translate(300,768)"/>
<path d="M0 0 C1.06605469 0.00644531 2.13210938 0.01289062 3.23046875 0.01953125 C5.8125 0.1875 5.8125 0.1875 6.8125 1.1875 C6.85342937 3.52047433 6.85491723 5.85455225 6.8125 8.1875 C3.8425 8.1875 0.8725 8.1875 -2.1875 8.1875 C-2.5175 9.5075 -2.8475 10.8275 -3.1875 12.1875 C0.1125 12.5175 3.4125 12.8475 6.8125 13.1875 C6.8125 15.8275 6.8125 18.4675 6.8125 21.1875 C6.18601562 21.23648438 5.55953125 21.28546875 4.9140625 21.3359375 C4.09679687 21.41070313 3.27953125 21.48546875 2.4375 21.5625 C1.21933594 21.66691406 1.21933594 21.66691406 -0.0234375 21.7734375 C-2.39084191 22.01642588 -2.39084191 22.01642588 -4.1875 24.1875 C-4.02242354 26.76290213 -4.02242354 26.76290213 -3.1875 29.1875 C-0.04408007 30.75920996 3.37021451 30.41925783 6.8125 30.1875 C7.8025 29.8575 8.7925 29.5275 9.8125 29.1875 C10.1425 19.6175 10.4725 10.0475 10.8125 0.1875 C13.7825 0.1875 16.7525 0.1875 19.8125 0.1875 C19.96126435 4.65310056 20.06990399 9.11737491 20.14208984 13.5847168 C20.17219086 15.10287611 20.21308346 16.62086251 20.26513672 18.13842773 C20.33826394 20.32579199 20.37201745 22.5108517 20.3984375 24.69921875 C20.4298584 26.01365967 20.4612793 27.32810059 20.49365234 28.68237305 C19.54933169 33.54173208 17.85450278 34.45869117 13.8125 37.1875 C7.97413943 40.03879237 0.62348801 40.39951914 -5.5703125 38.4296875 C-9.43373132 36.61915543 -11.9449088 34.90953195 -14.1875 31.1875 C-14.78895201 27.80636438 -14.72253685 24.57794405 -14.1875 21.1875 C-12.1875 18.5625 -12.1875 18.5625 -10.1875 17.1875 C-10.8475 16.65125 -11.5075 16.115 -12.1875 15.5625 C-14.1875 13.1875 -14.1875 13.1875 -14.6875 10.25 C-14.0694797 6.46462569 -12.88152411 4.88152411 -10.1875 2.1875 C-6.79245403 0.00226997 -3.98861689 -0.05344066 0 0 Z " fill="#3D3D3F" transform="translate(362.1875,770.8125)"/>
<path d="M0 0 C1.62615234 -0.00386719 1.62615234 -0.00386719 3.28515625 -0.0078125 C5.9375 0.125 5.9375 0.125 6.9375 1.125 C6.97842937 3.45797433 6.97991723 5.79205225 6.9375 8.125 C3.9675 8.125 0.9975 8.125 -2.0625 8.125 C-2.3925 9.445 -2.7225 10.765 -3.0625 12.125 C0.2375 12.455 3.5375 12.785 6.9375 13.125 C6.9375 15.765 6.9375 18.405 6.9375 21.125 C6.31101562 21.17398438 5.68453125 21.22296875 5.0390625 21.2734375 C4.22179687 21.34820313 3.40453125 21.42296875 2.5625 21.5 C1.34433594 21.60441406 1.34433594 21.60441406 0.1015625 21.7109375 C-2.26584191 21.95392588 -2.26584191 21.95392588 -4.0625 24.125 C-3.74208603 26.72780568 -3.74208603 26.72780568 -3.0625 29.125 C1.41004497 30.61584832 5.46495503 30.61584832 9.9375 29.125 C10.2675 19.555 10.5975 9.985 10.9375 0.125 C13.9075 0.125 16.8775 0.125 19.9375 0.125 C20.08626435 4.59060056 20.19490399 9.05487491 20.26708984 13.5222168 C20.29719086 15.04037611 20.33808346 16.55836251 20.39013672 18.07592773 C20.46326394 20.26329199 20.49701745 22.4483517 20.5234375 24.63671875 C20.5548584 25.95115967 20.5862793 27.26560059 20.61865234 28.61987305 C19.91566284 32.23737139 19.69443146 32.76907412 17.07275391 35.01098633 C10.9204018 39.1593446 5.21152772 39.85240277 -2.0625 39.125 C-7.7355542 37.45098401 -10.96052296 35.20096242 -14.0625 30.125 C-14.68146817 26.99758187 -14.73173114 24.24610451 -14.0625 21.125 C-12.0625 18.5625 -12.0625 18.5625 -10.0625 17.125 C-10.743125 16.63 -11.42375 16.135 -12.125 15.625 C-14.23747722 12.89922295 -14.36894173 12.39381915 -14.125 9.125 C-13.53968354 5.85088607 -13.10158375 5.16408375 -10.625 2.6875 C-6.70798535 0.29907643 -4.60748475 -0.01098328 0 0 Z " fill="#F37121" transform="translate(684.0625,770.875)"/>
<path d="M0 0 C2.97 0 5.94 0 9 0 C9.01981934 0.83772949 9.03963867 1.67545898 9.06005859 2.53857422 C9.13810612 5.64365834 9.22479635 8.74834539 9.31738281 11.85302734 C9.37454036 13.85886971 9.42168596 15.86498918 9.46875 17.87109375 C9.50742187 19.12792969 9.54609375 20.38476562 9.5859375 21.6796875 C9.6173584 22.84226074 9.6487793 24.00483398 9.68115234 25.20263672 C9.72157869 28.13656482 9.72157869 28.13656482 12 30 C16.93240159 30.56148248 16.93240159 30.56148248 21.18847656 28.35644531 C23.47922312 25.37662243 23.53620821 23.65338124 23.609375 19.921875 C23.64160156 18.76171875 23.67382812 17.6015625 23.70703125 16.40625 C23.72830078 14.59640625 23.72830078 14.59640625 23.75 12.75 C23.77964844 11.52796875 23.80929687 10.3059375 23.83984375 9.046875 C23.91052402 6.03118356 23.96323175 3.0162645 24 0 C26.97 0 29.94 0 33 0 C33 12.54 33 25.08 33 38 C29.7 38 26.4 38 23 38 C22.67 37.34 22.34 36.68 22 36 C21.175 36.495 20.35 36.99 19.5 37.5 C15.10603975 39.38312582 12.75131579 39.45250627 8 39 C4.27652718 37.34512319 2.05773029 35.50385033 0 32 C-0.34057617 28.60839844 -0.34057617 28.60839844 -0.29296875 24.609375 C-0.28872391 23.90476135 -0.28447906 23.20014771 -0.28010559 22.47418213 C-0.26336538 20.23239288 -0.22572404 17.99151569 -0.1875 15.75 C-0.17244704 14.22657552 -0.1587597 12.70313689 -0.14648438 11.1796875 C-0.11347791 7.45283059 -0.06172854 3.72650437 0 0 Z " fill="#EC7227" transform="translate(597,771)"/>
<path d="M0 0 C2.97 0 5.94 0 9 0 C9.01458252 0.80219971 9.02916504 1.60439941 9.04418945 2.4309082 C9.11856719 6.05859699 9.21526243 9.68535504 9.3125 13.3125 C9.33505859 14.57513672 9.35761719 15.83777344 9.38085938 17.13867188 C9.41630859 18.34716797 9.45175781 19.55566406 9.48828125 20.80078125 C9.51446533 21.91622314 9.54064941 23.03166504 9.56762695 24.1809082 C9.7795269 26.9938605 9.7795269 26.9938605 11.34838867 28.86401367 C13.94876741 30.65256685 15.93198468 30.37567535 19 30 C21.25453414 28.94821906 21.25453414 28.94821906 23 27 C23.64403188 24.10622273 23.64403188 24.10622273 23.609375 20.80078125 C23.64160156 19.59228516 23.67382812 18.38378906 23.70703125 17.13867188 C23.72121094 15.87603516 23.73539063 14.61339844 23.75 13.3125 C23.77964844 12.03826172 23.80929687 10.76402344 23.83984375 9.45117188 C23.91064049 6.30071708 23.96329047 3.1510066 24 0 C26.97 0 29.94 0 33 0 C33 12.54 33 25.08 33 38 C30.03 38 27.06 38 24 38 C23.67 37.01 23.34 36.02 23 35 C22.401875 35.474375 21.80375 35.94875 21.1875 36.4375 C17.71065058 38.92096387 14.38452815 39.45328209 10.13671875 39.421875 C6.22070039 38.64869404 3.51283421 35.99355032 1 33 C-0.15927528 29.52217417 -0.11313066 26.81196743 -0.09765625 23.14453125 C-0.0962413 22.48289474 -0.09482635 21.82125824 -0.09336853 21.13957214 C-0.08777996 19.03050172 -0.07522965 16.92153823 -0.0625 14.8125 C-0.05748352 13.38086091 -0.05292087 11.94922015 -0.04882812 10.51757812 C-0.0378143 7.01168412 -0.02055755 3.5058525 0 0 Z " fill="#E5732E" transform="translate(714,771)"/>
<path d="M0 0 C4.46210312 2.59694402 7.14218151 5.55799571 8.75 10.5 C9.63685372 17.68116066 10.1011515 25.55916998 6.1328125 31.9140625 C2.78781847 35.75041159 -0.73009886 38.0605728 -5.78125 38.94140625 C-11.4181014 39.20457251 -14.90581434 38.3270207 -19.25 34.5 C-22.68739487 30.96970256 -23.79420068 28.39984267 -24.25 23.5 C-21.20070576 23.21233073 -18.28702179 23.04281392 -15.25 23.5 C-13.5625 25.9375 -13.5625 25.9375 -12.25 28.5 C-9.35293293 29.74677006 -9.35293293 29.74677006 -6.25 29.5 C-3.36357527 27.31567858 -2.39898802 25.94696406 -1.25 22.5 C-0.87597469 16.79611395 -1.23285827 13.52856955 -4.25 8.5 C-7.58142278 7.99874717 -7.58142278 7.99874717 -11.25 8.5 C-12.178125 9.985 -12.178125 9.985 -13.125 11.5 C-15.25 14.5 -15.25 14.5 -17.4921875 14.8984375 C-19.77091119 14.87714102 -21.98686631 14.76113081 -24.25 14.5 C-24.02110404 8.89204896 -22.6341502 6.15520215 -18.91796875 1.98046875 C-13.46943348 -2.8555848 -6.5000963 -2.78223819 0 0 Z " fill="#ED7328" transform="translate(577.25,771.5)"/>
<path d="M0 0 C25.82548488 -0.06771598 51.65089791 -0.12298126 77.47644901 -0.15543652 C89.46764873 -0.17090647 101.45878937 -0.19199853 113.44995117 -0.22631836 C123.901242 -0.25621668 134.35249005 -0.27557407 144.80382246 -0.28226548 C150.33790249 -0.28617698 155.87186014 -0.2953724 161.40590096 -0.31719017 C166.61543253 -0.33756205 171.82479136 -0.34383233 177.03435898 -0.33932304 C178.94553377 -0.34014792 180.85671437 -0.34610934 182.76785469 -0.35761642 C185.3799175 -0.37257149 187.99133055 -0.36894265 190.60340881 -0.36076355 C191.35731763 -0.36950207 192.11122645 -0.3782406 192.887981 -0.38724393 C199.11093384 -0.33467871 203.75290311 0.98337459 208.4375 5.1875 C208.953125 5.785625 209.46875 6.38375 210 7 C207.625 7.125 207.625 7.125 205 7 C204.01 6.01 204.01 6.01 203 5 C202.67 5.33 202.34 5.66 202 6 C199.66702567 6.04092937 197.33294775 6.04241723 195 6 C195.66 5.01 196.32 4.02 197 3 C132.32 2.67 67.64 2.34 1 2 C1.33 23.12 1.66 44.24 2 66 C99.515 66.495 99.515 66.495 199 67 C199 67.33 199 67.66 199 68 C133.33 68 67.66 68 0 68 C0 45.56 0 23.12 0 0 Z " fill="#EA925C" transform="translate(373,352)"/>
<path d="M0 0 C2.49361571 1.20381448 4.68143083 2.45428722 7 4 C8.32 3.01 9.64 2.02 11 1 C14.21524305 2.40844718 16.32183868 4.10344786 18.75 6.625 C19.67039062 7.57246094 19.67039062 7.57246094 20.609375 8.5390625 C21.06828125 9.02117188 21.5271875 9.50328125 22 10 C21.18958252 10.95140869 20.37916504 11.90281738 19.54418945 12.88305664 C16.31407494 17.42834465 16.26872213 21.42963598 16.29296875 26.87109375 C16.27784744 27.793423 16.26272614 28.71575226 16.24714661 29.66603088 C16.20441787 32.5901055 16.19544596 35.51314487 16.1875 38.4375 C16.16434417 40.4290637 16.13897657 42.42060298 16.11132812 44.41210938 C16.04862217 49.27483051 16.01617119 54.13691049 16 59 C13.03 59 10.06 59 7 59 C6.8759674 53.14680629 6.78545639 47.29438533 6.7253418 41.44018555 C6.70027017 39.45079209 6.66620378 37.4614901 6.62280273 35.47241211 C6.56182611 32.60507592 6.53371677 29.73896229 6.51171875 26.87109375 C6.48591232 25.98852402 6.4601059 25.10595428 6.43351746 24.19664001 C6.43067335 17.86805881 7.87968009 14.81036657 12 10 C11.2575 10.680625 10.515 11.36125 9.75 12.0625 C7 14 7 14 5.0625 13.84375 C2.51031738 12.79967529 1.13893019 11.43540693 -0.75 9.4375 C-1.36359375 8.79683594 -1.9771875 8.15617188 -2.609375 7.49609375 C-3.29773438 6.75552734 -3.29773438 6.75552734 -4 6 C-2.84826645 3.53199953 -1.95216435 1.95216435 0 0 Z " fill="#3A3A3C" transform="translate(386,750)"/>
<path d="M0 0 C33.79294489 -0.06619611 67.58582662 -0.1215656 101.37881688 -0.15319599 C105.37274327 -0.15694789 109.36666952 -0.16083088 113.3605957 -0.16479492 C114.15567981 -0.16558185 114.95076392 -0.16636878 115.76994149 -0.16717956 C128.62633498 -0.18021637 141.48268804 -0.20386067 154.33905759 -0.23145839 C167.54105271 -0.25956066 180.74302673 -0.27618643 193.94505054 -0.28226548 C202.08460642 -0.28637195 210.22404797 -0.29931923 218.36356864 -0.3237494 C223.95299711 -0.33966619 229.54236689 -0.34438698 235.13181635 -0.34050413 C238.35166428 -0.33859177 241.57127249 -0.34308874 244.79109383 -0.35761642 C269.6218083 -0.46412153 269.6218083 -0.46412153 280 3 C276.87576613 3.85127868 274.54097294 4.0198876 271.3125 3.625 C270.52488281 3.53476563 269.73726562 3.44453125 268.92578125 3.3515625 C267 3 267 3 266 2 C264.58233023 1.89845125 263.15964333 1.86602997 261.73834896 1.8613348 C260.81325808 1.85586036 259.88816721 1.85038591 258.93504328 1.84474558 C257.90685482 1.84376747 256.87866636 1.84278936 255.81932068 1.84178162 C254.73632488 1.83684364 253.65332908 1.83190566 252.53751522 1.82681805 C248.87844603 1.8113585 245.2193945 1.80305966 241.56030273 1.79467773 C238.94934939 1.78510585 236.33839762 1.77509619 233.72744751 1.76467896 C228.09075599 1.74288498 222.45406211 1.72475123 216.81735039 1.70907402 C208.66752143 1.68640191 200.5177187 1.65825546 192.36791194 1.62875474 C179.14673475 1.58104614 165.92554687 1.53779085 152.7043457 1.49731445 C139.85798306 1.45797613 127.01162994 1.41655392 114.1652832 1.37231445 C113.3739921 1.36959018 112.58270099 1.36686591 111.76743137 1.36405908 C107.797923 1.35037988 103.82841478 1.33665955 99.85890663 1.32291877 C66.9059564 1.20890267 33.95298721 1.10292121 1 1 C1 22.45 1 43.9 1 66 C86.47 66 171.94 66 260 66 C260.33 66.99 260.66 67.98 261 69 C260.43293327 68.83785997 259.86586654 68.67571994 259.28161597 68.50866657 C256.93995078 67.98661254 254.89060238 67.86950985 252.49414444 67.8613348 C251.13934915 67.85312313 251.13934915 67.85312313 249.75718427 67.84474558 C248.27470075 67.84327842 248.27470075 67.84327842 246.76226807 67.84178162 C245.70937741 67.83684364 244.65648675 67.83190566 243.57169032 67.82681805 C240.03249568 67.81142131 236.49331922 67.8030765 232.95410156 67.79467773 C230.42152241 67.78510093 227.88894487 67.77509096 225.35636902 67.76467896 C219.89816067 67.74321639 214.43995533 67.72477624 208.9817276 67.70907402 C201.09003902 67.68636602 193.19837718 67.65822447 185.30671129 67.62875474 C172.50315137 67.58109025 159.69958051 67.53782296 146.89599609 67.49731445 C134.45816191 67.45795372 122.02033745 67.4165261 109.58251953 67.37231445 C108.43260908 67.36822804 108.43260908 67.36822804 107.25946811 67.36405908 C103.41364421 67.35037951 99.56782046 67.33665925 95.72199678 67.32291877 C63.81468359 67.20897194 31.90735098 67.10296752 0 67 C0 44.89 0 22.78 0 0 Z " fill="#DA7537" transform="translate(349,244)"/>
<path d="M0 0 C4.71878688 1.69164058 7.20582817 3.86048618 10 8 C11.13917218 11.41751653 11.11338481 14.03487937 11.09765625 17.63671875 C11.09443359 18.93544922 11.09121094 20.23417969 11.08789062 21.57226562 C11.07953531 22.94401108 11.07107037 24.31575587 11.0625 25.6875 C11.05748335 27.07096195 11.05292073 28.45442563 11.04882812 29.83789062 C11.03702529 33.22530395 11.02056019 36.61263033 11 40 C7.7 40 4.4 40 1 40 C0.67 30.43 0.34 20.86 0 11 C-3.14341993 9.42829004 -6.55771451 9.76824217 -10 10 C-10.99 10.33 -11.98 10.66 -13 11 C-13 8.03 -13 5.06 -13 2 C-8.30215048 -0.34892476 -5.14237358 -0.57236854 0 0 Z " fill="#4D4D4F" transform="translate(534,770)"/>
<path d="M0 0 C4.5340774 2.22581981 6.81941558 4.48870284 9 9 C9.34057617 12.41333008 9.34057617 12.41333008 9.29296875 16.26953125 C9.28872391 16.95053391 9.28447906 17.63153656 9.28010559 18.33317566 C9.2634061 20.49336459 9.22577312 22.65259642 9.1875 24.8125 C9.17244174 26.28318958 9.15875534 27.75389389 9.14648438 29.22460938 C9.11353214 32.81671357 9.06181173 36.40826326 9 40 C6.03 40 3.06 40 0 40 C-0.01981934 39.16227051 -0.03963867 38.32454102 -0.06005859 37.46142578 C-0.13810612 34.35634166 -0.22479635 31.25165461 -0.31738281 28.14697266 C-0.37454036 26.14113029 -0.42168596 24.13501082 -0.46875 22.12890625 C-0.50742187 20.87207031 -0.54609375 19.61523438 -0.5859375 18.3203125 C-0.63306885 16.57645264 -0.63306885 16.57645264 -0.68115234 14.79736328 C-0.72157869 11.86343518 -0.72157869 11.86343518 -3 10 C-7.13997567 9.8028583 -10.07703567 9.69234522 -14 11 C-14 8.03 -14 5.06 -14 2 C-9.08452461 -0.45773769 -5.40596407 -0.69175844 0 0 Z " fill="#424244" transform="translate(330,770)"/>
<path d="M0 0 C3.63644512 1.4141731 6.55683037 2.91389099 9 6 C10.15927528 9.47782583 10.11313066 12.18803257 10.09765625 15.85546875 C10.0962413 16.51710526 10.09482635 17.17874176 10.09336853 17.86042786 C10.08777996 19.96949828 10.07522965 22.07846177 10.0625 24.1875 C10.05748352 25.61913909 10.05292087 27.05077985 10.04882812 28.48242188 C10.0378143 31.98831588 10.02055755 35.4941475 10 39 C7.36 39 4.72 39 2 39 C1.67 29.76 1.34 20.52 1 11 C-2.14930893 9.95023036 -4.38814456 9.89868405 -7.6875 9.9375 C-8.68136719 9.94652344 -9.67523437 9.95554687 -10.69921875 9.96484375 C-11.45847656 9.97644531 -12.21773437 9.98804688 -13 10 C-13 7.36 -13 4.72 -13 2 C-8.6551384 -0.46733091 -4.90018459 -0.56147948 0 0 Z " fill="#F4701F" transform="translate(651,770)"/>
<path d="M0 0 C0.66 0.99 1.32 1.98 2 3 C-0.91786078 5.50928841 -2.67627979 6.37474328 -6.52147293 6.36914349 C-7.88149331 6.3781032 -7.88149331 6.3781032 -9.26898885 6.38724393 C-10.75730879 6.37413614 -10.75730879 6.37413614 -12.2756958 6.36076355 C-13.86115711 6.36460846 -13.86115711 6.36460846 -15.47864795 6.36853105 C-19.03181734 6.37348514 -22.58456485 6.3569488 -26.13769531 6.34057617 C-28.68012482 6.33973025 -31.22255505 6.34020435 -33.76498413 6.34190369 C-39.24453377 6.34258755 -44.72394677 6.33406071 -50.20346832 6.31719017 C-58.12591565 6.29281413 -66.04831114 6.28499634 -73.97079191 6.2812262 C-86.82430731 6.27465952 -99.67776561 6.25469249 -112.53125 6.22631836 C-125.01757522 6.19878339 -137.50388493 6.17754706 -149.99023438 6.16479492 C-150.75982834 6.16400675 -151.52942231 6.16321858 -152.3223373 6.16240653 C-156.18314505 6.15849143 -160.04395291 6.1547003 -163.90476084 6.15097082 C-195.93655782 6.11986815 -227.96824863 6.06456145 -260 6 C-260 27.12 -260 48.24 -260 70 C-260.33 70 -260.66 70 -261 70 C-261 48.55 -261 27.1 -261 5 C-249.35348145 4.98598145 -249.35348145 4.98598145 -237.47167969 4.97167969 C-212.64221166 4.93898718 -187.81282207 4.88671205 -162.98341785 4.82207905 C-159.12810577 4.81206133 -155.27279327 4.80221724 -151.41748047 4.79248047 C-150.64994171 4.7905391 -149.88240296 4.78859772 -149.09160545 4.78659752 C-136.65594841 4.75555771 -124.22030982 4.73859135 -111.78462133 4.72680578 C-99.02896926 4.71440446 -86.27341426 4.6869262 -73.51782346 4.64538693 C-65.64388811 4.6202222 -57.7701137 4.60688488 -49.89613757 4.60857043 C-43.86318506 4.60860364 -37.83049294 4.58768279 -31.7976017 4.55883217 C-29.31918297 4.550288 -26.84072995 4.54861359 -24.36230278 4.55419731 C-20.98708204 4.56079065 -17.61285276 4.54302776 -14.23773193 4.51898193 C-13.24940959 4.52674235 -12.26108724 4.53450277 -11.24281573 4.54249835 C-5.8985904 4.54723418 -5.8985904 4.54723418 -1.36014175 1.96756363 C-0.91129498 1.31826763 -0.4624482 0.66897163 0 0 Z " fill="#DD6E2C" transform="translate(610,457)"/>
<path d="M0 0 C34.74454165 -0.02286913 69.48908159 -0.04049963 104.23362913 -0.05106533 C108.33185954 -0.0523161 112.43008993 -0.05361041 116.52832031 -0.05493164 C117.34423352 -0.05519395 118.16014674 -0.05545626 119.00078459 -0.05572652 C132.22671562 -0.06008252 145.45264233 -0.06796968 158.67857079 -0.0771528 C172.24098901 -0.08649128 185.80340495 -0.09205602 199.36582625 -0.09408849 C207.74029697 -0.09546332 216.11475546 -0.09981171 224.48922242 -0.10791647 C230.2252664 -0.11318632 235.96130402 -0.11480375 241.69735025 -0.11350138 C245.01094364 -0.11285838 248.32451096 -0.11441105 251.63810158 -0.11920547 C255.22387023 -0.12414161 258.80958547 -0.12299856 262.39535522 -0.12025452 C263.45175843 -0.12316736 264.50816163 -0.1260802 265.59657705 -0.12908131 C267.02900068 -0.12609474 267.02900068 -0.12609474 268.49036217 -0.12304783 C269.31891193 -0.12342755 270.14746169 -0.12380727 271.00111902 -0.1241985 C273 0 273 0 275 1 C275 1.66 275 2.32 275 3 C273.90890427 2.83826325 272.81780853 2.67652651 271.69364929 2.50988865 C266.42847657 1.85647762 261.20113981 1.8468856 255.90161133 1.84178162 C254.80446745 1.83684364 253.70732357 1.83190566 252.57693291 1.82681805 C248.91196716 1.81149776 245.24701886 1.80309726 241.58203125 1.79467773 C238.95034126 1.78509491 236.3186528 1.7750846 233.68696594 1.76467896 C228.02693401 1.74297271 222.36689971 1.72480698 216.70684814 1.70907402 C208.52345346 1.68632188 200.34008417 1.6581866 192.1567111 1.62875474 C178.87841109 1.58114417 165.60010066 1.53786237 152.32177734 1.49731445 C139.42626129 1.45792621 126.53075448 1.41649205 113.63525391 1.37231445 C112.83982787 1.36959018 112.04440184 1.36686591 111.22487199 1.36405908 C107.23428993 1.35037906 103.243708 1.33665889 99.25312614 1.32291877 C66.16876985 1.20905671 33.08439433 1.10222475 0 1 C0 0.67 0 0.34 0 0 Z " fill="#FFDDC5" transform="translate(349,243)"/>
<path d="M0 0 C0.66 0 1.32 0 2 0 C2 1.65 2 3.3 2 5 C2.66 5 3.32 5 4 5 C4 3.35 4 1.7 4 0 C4.33 0 4.66 0 5 0 C5 9.57 5 19.14 5 29 C0.69960163 31.15019919 -1.28812373 31.41332248 -6 31 C-8.9375 29.5 -8.9375 29.5 -11 28 C-10.25 23.25 -10.25 23.25 -8 21 C-5.8359375 20.8046875 -5.8359375 20.8046875 -3.375 20.875 C-2.14910156 20.90207031 -2.14910156 20.90207031 -0.8984375 20.9296875 C0.04128906 20.96449219 0.04128906 20.96449219 1 21 C1 18.36 1 15.72 1 13 C-2.3 13 -5.6 13 -9 13 C-9.33 11.68 -9.66 10.36 -10 9 C-9.34 8.34 -8.68 7.68 -8 7 C-5.8359375 7.0234375 -5.8359375 7.0234375 -3.375 7.375 C-2.55773437 7.48585938 -1.74046875 7.59671875 -0.8984375 7.7109375 C0.04128906 7.85402344 0.04128906 7.85402344 1 8 C0.67 5.36 0.34 2.72 0 0 Z " fill="#FDF1E4" transform="translate(690,771)"/>
<path d="M0 0 C2.64 0 5.28 0 8 0 C8 10.56 8 21.12 8 32 C6.02 32.495 6.02 32.495 4 33 C4.99 33.66 5.98 34.32 7 35 C6 36 6 36 3.4375 36.0625 C2.633125 36.041875 1.82875 36.02125 1 36 C0.34 34.35 -0.32 32.7 -1 31 C-0.34 30.34 0.32 29.68 1 29 C0.67 28.34 0.34 27.68 0 27 C-0.08527628 24.96767366 -0.10716135 22.93252994 -0.09765625 20.8984375 C-0.09443359 19.68671875 -0.09121094 18.475 -0.08789062 17.2265625 C-0.07951172 15.95554687 -0.07113281 14.68453125 -0.0625 13.375 C-0.05798828 12.09625 -0.05347656 10.8175 -0.04882812 9.5 C-0.03701203 6.33328708 -0.02053815 3.16666644 0 0 Z " fill="#F07021" transform="translate(621,772)"/>
<path d="M0 0 C2.97 0 5.94 0 9 0 C9 3.63 9 7.26 9 11 C-1.56 11 -12.12 11 -23 11 C-23 8.69 -23 6.38 -23 4 C-15.41 4 -7.82 4 0 4 C0 2.68 0 1.36 0 0 Z " fill="#E87B39" transform="translate(578,755)"/>
<path d="M0 0 C2.31 0 4.62 0 7 0 C7.16754147 4.09317863 7.32810824 8.18656495 7.48217773 12.28027344 C7.53559149 13.67325222 7.59092043 15.06615893 7.64819336 16.45898438 C7.73012069 18.45943602 7.80462098 20.4601875 7.87890625 22.4609375 C7.9260376 23.66540527 7.97316895 24.86987305 8.02172852 26.11083984 C8 29 8 29 7 31 C11.29 31 15.58 31 20 31 C19.67 31.66 19.34 32.32 19 33 C14.63585999 33.85571373 10.43923267 34.10827397 6 34 C5.67 33.34 5.34 32.68 5 32 C2.525 31.01 2.525 31.01 0 30 C0 20.1 0 10.2 0 0 Z " fill="#F37121" transform="translate(715,772)"/>
<path d="M0 0 C0.93065133 2.60582371 1.14917407 3.64198224 0.0625 6.25 C-0.288125 6.8275 -0.63875 7.405 -1 8 C-1.66 8 -2.32 8 -3 8 C-3.36868811 8.93655695 -3.36868811 8.93655695 -3.74482447 9.89203423 C-5.67015005 13.1254628 -8.05150502 13.42380178 -11.53214824 14.44862044 C-15.27956781 15.28588733 -18.8474275 15.40524367 -22.67506409 15.36076355 C-23.91166453 15.36460846 -23.91166453 15.36460846 -25.1732468 15.36853105 C-27.90940412 15.373435 -30.64499785 15.35703262 -33.38110352 15.34057617 C-35.35284919 15.33972916 -37.32459581 15.34020648 -39.29634094 15.34190369 C-44.6304322 15.34276219 -49.96431986 15.32515985 -55.29836392 15.30418181 C-60.87972044 15.28539085 -66.46108194 15.28366266 -72.04246521 15.28010559 C-82.6032518 15.27079224 -93.1639449 15.24618803 -103.72469038 15.21605712 C-115.75125927 15.18249103 -127.7778327 15.16602154 -139.8044368 15.15097082 C-164.53634297 15.11963789 -189.26816624 15.06689116 -214 15 C-214 14.67 -214 14.34 -214 14 C-212.9836252 13.99945523 -211.9672504 13.99891047 -210.92007637 13.99834919 C-186.17295433 13.98394454 -161.42600799 13.94088959 -136.6789875 13.86790943 C-124.71142673 13.83327766 -112.74398092 13.80790627 -100.77636719 13.80444336 C-90.34363115 13.80140096 -79.91109996 13.78087323 -69.47844303 13.73947543 C-63.95597521 13.718169 -58.43379847 13.70553284 -52.91128922 13.71384621 C-47.70894853 13.72140106 -42.5071969 13.70550477 -37.30496407 13.67193985 C-35.39991428 13.66372394 -33.49480572 13.66393607 -31.58976173 13.67340279 C-17.5106866 13.9156532 -17.5106866 13.9156532 -5 8 C-2.32212095 5.25680682 -1.20351474 3.61054421 0 0 Z " fill="#FFFAEB" transform="translate(587,406)"/>
<path d="M0 0 C1.2065625 0.0309375 1.2065625 0.0309375 2.4375 0.0625 C2.4375 1.0525 2.4375 2.0425 2.4375 3.0625 C-2.46184854 7.67900981 -7.61578898 8.78920792 -14.11730957 8.66377258 C-14.94085544 8.66804471 -15.76440131 8.67231683 -16.61290312 8.67671841 C-19.35252766 8.68490691 -22.09059639 8.65753326 -24.83007812 8.63012695 C-26.80167607 8.62871558 -28.77327663 8.6295102 -30.74487305 8.63233948 C-36.08330363 8.63377155 -41.42117024 8.60441517 -46.75946999 8.56946969 C-52.34348298 8.53817163 -57.92750951 8.53527272 -63.51159668 8.52934265 C-74.07957932 8.51381439 -84.64730274 8.47279951 -95.21517134 8.4225952 C-107.24894857 8.36667022 -119.28273832 8.33920727 -131.3166132 8.31411803 C-156.06538574 8.26188292 -180.81392833 8.17396024 -205.5625 8.0625 C-205.5625 7.7325 -205.5625 7.4025 -205.5625 7.0625 C-139.2325 6.7325 -72.9025 6.4025 -4.5625 6.0625 C-4.5625 5.4025 -4.5625 4.7425 -4.5625 4.0625 C-3.5725 4.0625 -2.5825 4.0625 -1.5625 4.0625 C-1.5625 3.4025 -1.5625 2.7425 -1.5625 2.0625 C-2.5525 1.5675 -2.5525 1.5675 -3.5625 1.0625 C-2.5625 0.0625 -2.5625 0.0625 0 0 Z " fill="#DE6E28" transform="translate(580.5625,410.9375)"/>
<path d="M0 0 C1.45792884 -0.05399736 2.91642712 -0.09279177 4.375 -0.125 C5.18710937 -0.14820313 5.99921875 -0.17140625 6.8359375 -0.1953125 C9 0 9 0 11 2 C11 2.99 11 3.98 11 5 C16.61 5 22.22 5 28 5 C28 7.31 28 9.62 28 12 C19.75 12 11.5 12 3 12 C3 10.02 3 8.04 3 6 C2.01 6 1.02 6 0 6 C0 4.02 0 2.04 0 0 Z " fill="#3F3F3F" transform="translate(489,749)"/>
<path d="M0 0 C0.33 0 0.66 0 1 0 C1 13.86 1 27.72 1 42 C-4.15240626 42.64405078 -8.44220387 43.11670868 -13.5078125 43.02172852 C-14.72847412 43.00163223 -15.94913574 42.98153595 -17.20678711 42.96083069 C-19.14630249 42.92027809 -19.14630249 42.92027809 -21.125 42.87890625 C-22.48119235 42.85456011 -23.83739384 42.83071893 -25.19360352 42.80735779 C-28.73804261 42.7449633 -32.28231669 42.67577397 -35.82659912 42.60510254 C-39.45333434 42.53401205 -43.0801852 42.46944001 -46.70703125 42.40429688 C-53.80481301 42.27586128 -60.90244079 42.14023712 -68 42 C-67.99057373 42.73605469 -67.98114746 43.47210938 -67.97143555 44.23046875 C-67.96043823 45.69419922 -67.96043823 45.69419922 -67.94921875 47.1875 C-67.93979248 48.15042969 -67.93036621 49.11335938 -67.9206543 50.10546875 C-68.08697838 56.17297141 -68.65079132 60.65079132 -73 65 C-71.68 56.75 -70.36 48.5 -69 40 C-46.23 40 -23.46 40 0 40 C0 26.8 0 13.6 0 0 Z " fill="#F8D2B2" transform="translate(745,420)"/>
<path d="M0 0 C2.97 0 5.94 0 9 0 C9 12.54 9 25.08 9 38 C5.7 38 2.4 38 -1 38 C-1.33 37.34 -1.66 36.68 -2 36 C-2.825 36.495 -3.65 36.99 -4.5 37.5 C-8.89396025 39.38312582 -11.24868421 39.45250627 -16 39 C-19 37.5 -19 37.5 -21 36 C-20.01 35.505 -20.01 35.505 -19 35 C-16.875 35.9375 -16.875 35.9375 -15 37 C-15 36.01 -15 35.02 -15 34 C-14.01 33.505 -14.01 33.505 -13 33 C-12.67 32.01 -12.34 31.02 -12 30 C-10.4221875 30.12375 -10.4221875 30.12375 -8.8125 30.25 C-4.46236331 29.96474513 -3.0684847 28.97550031 0 26 C0.66 27.65 1.32 29.3 2 31 C1.34 31.66 0.68 32.32 0 33 C0.3185177 35.10820797 0.3185177 35.10820797 1 37 C3.475 36.505 3.475 36.505 6 36 C5.01 35.34 4.02 34.68 3 34 C5.475 33.505 5.475 33.505 8 33 C8 22.44 8 11.88 8 1 C5.36 1 2.72 1 0 1 C0 0.67 0 0.34 0 0 Z " fill="#E47D3E" transform="translate(621,771)"/>
<path d="M0 0 C2.97 0 5.94 0 9 0 C9.01458252 0.80219971 9.02916504 1.60439941 9.04418945 2.4309082 C9.11856719 6.05859699 9.21526243 9.68535504 9.3125 13.3125 C9.33505859 14.57513672 9.35761719 15.83777344 9.38085938 17.13867188 C9.41630859 18.34716797 9.45175781 19.55566406 9.48828125 20.80078125 C9.51446533 21.91622314 9.54064941 23.03166504 9.56762695 24.1809082 C9.77905575 26.99462129 9.77905575 26.99462129 11.35229492 28.86401367 C13.95959801 30.66158091 15.91475675 30.37022919 19 30 C21.81780534 28.61114752 21.81780534 28.61114752 24 27 C23.67 28.65 23.34 30.3 23 32 C23.66 32 24.32 32 25 32 C25 32.66 25 33.32 25 34 C20.11989004 37.5787473 16.29337255 39.45996318 10.140625 39.42578125 C6.24916037 38.65174905 3.48467898 35.99714402 1 33 C1 32.34 1 31.68 1 31 C2.98 31.33 4.96 31.66 7 32 C7 32.66 7 33.32 7 34 C8.58294782 34.05437607 10.16644256 34.09296271 11.75 34.125 C13.07257812 34.15980469 13.07257812 34.15980469 14.421875 34.1953125 C17.35780081 34.13640771 17.35780081 34.13640771 21 32 C16.71 32 12.42 32 8 32 C8 21.77 8 11.54 8 1 C5.69 1 3.38 1 1 1 C1 10.57 1 20.14 1 30 C0.67 30 0.34 30 0 30 C0 20.1 0 10.2 0 0 Z " fill="#E0793B" transform="translate(714,771)"/>
<path d="M0 0 C1.81359313 3.88134031 2.2373701 6.90693517 2.1953125 11.17578125 C2.18564453 12.91118164 2.18564453 12.91118164 2.17578125 14.68164062 C2.15902344 15.87982422 2.14226563 17.07800781 2.125 18.3125 C2.11597656 19.53001953 2.10695313 20.74753906 2.09765625 22.00195312 C2.07413037 25.00150274 2.04125653 28.00065044 2 31 C0.02 31 -1.96 31 -4 31 C-4.33 21.76 -4.66 12.52 -5 3 C-5.66 3 -6.32 3 -7 3 C-7 2.34 -7 1.68 -7 1 C-4.57333205 -0.21333397 -2.66500278 0 0 0 Z " fill="#F47122" transform="translate(658,777)"/>
<path d="M0 0 C4.06662662 1.55271198 5.57519602 2.36279402 8 6 C7.125 9.1875 7.125 9.1875 6 12 C2.28400809 12.20086443 1.22791555 12.1519437 -2 10 C-3.95379499 9.72214568 -3.95379499 9.72214568 -6 9.8125 C-7.0209375 9.82216797 -7.0209375 9.82216797 -8.0625 9.83203125 C-10.21758209 9.94302254 -10.21758209 9.94302254 -13 11 C-13 8.03 -13 5.06 -13 2 C-8.31227762 -0.34386119 -5.13394652 -0.58724518 0 0 Z " fill="#3F3F41" transform="translate(534,770)"/>
<path d="M0 0 C0.99 0 1.98 0 3 0 C3 8.58 3 17.16 3 26 C0.36 26 -2.28 26 -5 26 C-5 21.38 -5 16.76 -5 12 C-4.34 11.67 -3.68 11.34 -3 11 C-3.061875 10.113125 -3.12375 9.22625 -3.1875 8.3125 C-2.97848561 4.61991248 -2.28528899 2.87777132 0 0 Z " fill="#383838" transform="translate(304,783)"/>
<path d="M0 0 C1.65 0 3.3 0 5 0 C5 7.92 5 15.84 5 24 C4.01 24 3.02 24 2 24 C2 24.66 2 25.32 2 26 C2.66 26.33 3.32 26.66 4 27 C2.35 27.33 0.7 27.66 -1 28 C-1.33 27.01 -1.66 26.02 -2 25 C-1.67 24.34 -1.34 23.68 -1 23 C-1.66 23 -2.32 23 -3 23 C-2.69401322 19.54105772 -2.37910772 16.082985 -2.0625 12.625 C-1.97548828 11.64015625 -1.88847656 10.6553125 -1.79882812 9.640625 C-1.71181641 8.69960938 -1.62480469 7.75859375 -1.53515625 6.7890625 C-1.456604 5.91975098 -1.37805176 5.05043945 -1.29711914 4.15478516 C-1 2 -1 2 0 0 Z " fill="#F47020" transform="translate(740,780)"/>
<path d="M0 0 C10.56 0 21.12 0 32 0 C31.67 0.66 31.34 1.32 31 2 C29.02 2 27.04 2 25 2 C25.66 4.31 26.32 6.62 27 9 C26.45472656 8.71125 25.90945313 8.4225 25.34765625 8.125 C19.87766768 5.43208255 15.11306824 3.8257383 9 5 C5.6330885 6.74348693 5.6330885 6.74348693 3 9 C2.01 9.66 1.02 10.32 0 11 C0 9.35 0 7.7 0 6 C-0.66 5.67 -1.32 5.34 -2 5 C-1.34 4.01 -0.68 3.02 0 2 C0 1.34 0 0.68 0 0 Z " fill="#FDF9F3" transform="translate(555,766)"/>
<path d="M0 0 C0 2.31 0 4.62 0 7 C-1.98 7 -3.96 7 -6 7 C-6 7.99 -6 8.98 -6 10 C-8.97 10 -11.94 10 -15 10 C-15.30375856 6.65865579 -15.32796316 4.59345714 -13.6875 1.625 C-9.38906162 -0.97405576 -4.89867185 -0.30405549 0 0 Z " fill="#EB7A36" transform="translate(752,756)"/>
<path d="M0 0 C3.96 0 7.92 0 12 0 C12 1.98 12 3.96 12 6 C9.03 6 6.06 6 3 6 C2.67 6.99 2.34 7.98 2 9 C1.34 9 0.68 9 0 9 C0 10.32 0 11.64 0 13 C-1.32 13 -2.64 13 -4 13 C-4.33 10.36 -4.66 7.72 -5 5 C-4.01 4.67 -3.02 4.34 -2 4 C-1.34 2.68 -0.68 1.36 0 0 Z M2 3 C2.66 3.66 3.32 4.32 4 5 C4 4.34 4 3.68 4 3 C3.34 3 2.68 3 2 3 Z " fill="#F27020" transform="translate(678,785)"/>
<path d="M0 0 C2.49361571 1.20381448 4.68143083 2.45428722 7 4 C7.66 4 8.32 4 9 4 C10.33554084 10.43487859 10.33554084 10.43487859 8.8125 13 C7 14 7 14 5.12109375 13.78515625 C2.48504883 12.80938272 1.17343319 11.47190049 -0.75 9.4375 C-1.36359375 8.79683594 -1.9771875 8.15617188 -2.609375 7.49609375 C-3.29773438 6.75552734 -3.29773438 6.75552734 -4 6 C-2.84826645 3.53199953 -1.95216435 1.95216435 0 0 Z " fill="#3E3E40" transform="translate(386,750)"/>
<path d="M0 0 C0.66 0.33 1.32 0.66 2 1 C3.15927528 4.47782583 3.11313066 7.18803257 3.09765625 10.85546875 C3.0962413 11.51710526 3.09482635 12.17874176 3.09336853 12.86042786 C3.08777996 14.96949828 3.07522965 17.07846177 3.0625 19.1875 C3.05748352 20.61913909 3.05292087 22.05077985 3.04882812 23.48242188 C3.0378143 26.98831588 3.02055755 30.4941475 3 34 C0.36 34 -2.28 34 -5 34 C-5.33 24.76 -5.66 15.52 -6 6 C-9.63 5.34 -13.26 4.68 -17 4 C-16.67 3.34 -16.34 2.68 -16 2 C-8.54148472 1.63318777 -8.54148472 1.63318777 -6.0625 3.3125 C-3.88158969 6.77629872 -3.88214972 9.7834946 -3.90234375 13.76171875 C-3.90556641 14.87998047 -3.90878906 15.99824219 -3.91210938 17.15039062 C-3.92048828 18.31763672 -3.92886719 19.48488281 -3.9375 20.6875 C-3.94201172 21.86634766 -3.94652344 23.04519531 -3.95117188 24.25976562 C-3.96296727 27.17322789 -3.9794273 30.08658863 -4 33 C-2.02 33 -0.04 33 2 33 C1.86027432 28.81227299 1.71212919 24.62488393 1.5625 20.4375 C1.52318359 19.25607422 1.48386719 18.07464844 1.44335938 16.85742188 C1.2362496 11.16986877 0.98031568 5.61004186 0 0 Z " fill="#DE7536" transform="translate(658,775)"/>
<path d="M0 0 C2.97 0 5.94 0 9 0 C9 10.56 9 21.12 9 32 C8.67 32 8.34 32 8 32 C8 21.77 8 11.54 8 1 C5.69 1 3.38 1 1 1 C1 11.56 1 22.12 1 33 C-1.93593133 33 -4.76556416 32.77500573 -7.6875 32.5 C-9.17830078 32.36078125 -9.17830078 32.36078125 -10.69921875 32.21875 C-11.45847656 32.1465625 -12.21773437 32.074375 -13 32 C-13 31.34 -13 30.68 -13 30 C-12.38511719 30.01160156 -11.77023437 30.02320313 -11.13671875 30.03515625 C-9.92435547 30.04869141 -9.92435547 30.04869141 -8.6875 30.0625 C-7.88699219 30.07410156 -7.08648438 30.08570313 -6.26171875 30.09765625 C-3.83138666 30.09657855 -3.83138666 30.09657855 -1 29 C-0.67 19.43 -0.34 9.86 0 0 Z " fill="#DA773B" transform="translate(695,771)"/>
<path d="M0 0 C0.66 0.99 1.32 1.98 2 3 C1.814375 3.825 1.62875 4.65 1.4375 5.5 C1.293125 6.325 1.14875 7.15 1 8 C2.33378575 9.8354799 2.33378575 9.8354799 4 11 C4 10.34 4 9.68 4 9 C3.34 9 2.68 9 2 9 C2 8.34 2 7.68 2 7 C4.475 7.99 4.475 7.99 7 9 C7 6.69 7 4.38 7 2 C7.99 2.66 8.98 3.32 10 4 C9.67 5.32 9.34 6.64 9 8 C12.3 8.33 15.6 8.66 19 9 C19 11.64 19 14.28 19 17 C18.37351562 17.06058594 17.74703125 17.12117187 17.1015625 17.18359375 C15.87566406 17.30927734 15.87566406 17.30927734 14.625 17.4375 C13.81289063 17.51871094 13.00078125 17.59992187 12.1640625 17.68359375 C9.95727195 17.89090114 9.95727195 17.89090114 8 19 C8.33 17.68 8.66 16.36 9 15 C11.97 15.33 14.94 15.66 18 16 C18 14.02 18 12.04 18 10 C16.04081032 10.05991406 14.08248471 10.14867138 12.125 10.25 C11.03445313 10.29640625 9.94390625 10.3428125 8.8203125 10.390625 C5.8667935 10.68846128 5.8667935 10.68846128 4.6171875 13.046875 C4.41351562 13.69140625 4.20984375 14.3359375 4 15 C-0.29633214 11.49279009 -0.29633214 11.49279009 -2 9 C-2.29643863 5.98620726 -1.76260446 3.99957754 -1 1 C-0.67 0.67 -0.34 0.34 0 0 Z M8 13 C8.66 13 9.32 13 10 13 C9.67 13.66 9.34 14.32 9 15 C8.67 14.34 8.34 13.68 8 13 Z " fill="#E67E3E" transform="translate(672,775)"/>
<path d="M0 0 C0.33 0 0.66 0 1 0 C1.07055948 2.54014145 1.09554864 4.67513461 0.375 7.125 C0.25125 7.74375 0.1275 8.3625 0 9 C0.99 10.485 0.99 10.485 2 12 C2.99 13.485 2.99 13.485 4 15 C6.05925139 15.72382467 6.05925139 15.72382467 8 16 C8 15.34 8 14.68 8 14 C9.32 14 10.64 14 12 14 C11.67 14.99 11.34 15.98 11 17 C16.77759884 17.12036664 22.27959989 16.8320582 28 16 C22.50512664 20.51364597 16.90910865 20.57575905 10 20 C4.3269458 18.32598401 1.10197704 16.07596242 -2 11 C-2.49569369 7.93289531 -2.58103513 5.05807962 -2 2 C-1.34 1.34 -0.68 0.68 0 0 Z " fill="#E47838" transform="translate(672,790)"/>
<path d="M0 0 C0.66 0.66 1.32 1.32 2 2 C-0.8809591 6.09982641 -3.24365283 8.32647044 -8 10 C-12.82394337 10.56524537 -16.70467044 10.62175819 -21.125 8.5 C-21.74375 8.005 -22.3625 7.51 -23 7 C-22.34 6.67 -21.68 6.34 -21 6 C-18.64018187 6.93578995 -16.30368736 7.93347808 -14 9 C-14.33 8.01 -14.66 7.02 -15 6 C-13.68 5.34 -12.36 4.68 -11 4 C-10.34 4.66 -9.68 5.32 -9 6 C-6.93125966 6.6425235 -6.93125966 6.6425235 -5 7 C-5.33 6.01 -5.66 5.02 -6 4 C-4.60804085 1.2160817 -2.84424221 1.02101003 0 0 Z " fill="#E97329" transform="translate(582,800)"/>
<path d="M0 0 C2.4375 1 2.4375 1 4 2 C4 3.32 4 4.64 4 6 C-4.415 6.495 -4.415 6.495 -13 7 C-13 6.34 -13 5.68 -13 5 C-12.34 5 -11.68 5 -11 5 C-10.71125 4.360625 -10.4225 3.72125 -10.125 3.0625 C-7.86210698 -1.0861372 -4.30148453 -0.22249058 0 0 Z " fill="#E6E6E7" transform="translate(294,778)"/>
<path d="M0 0 C0.66 0 1.32 0 2 0 C7.86463461 12.98597663 7.82330644 28.70719713 3 42 C2.34 42 1.68 42 1 42 C1.144375 41.29617188 1.28875 40.59234375 1.4375 39.8671875 C3.6108117 28.30637666 3.74605726 17.44539898 1 6 C0.65549886 4.00189338 0.31622777 2.00277585 0 0 Z " fill="#FDEEDB" transform="translate(587,364)"/>
<path d="M0 0 C3.06630664 0.8974556 4.73038808 1.73038808 7 4 C7.125 6.625 7.125 6.625 7 9 C6.34 9 5.68 9 5 9 C4.67 13.29 4.34 17.58 4 22 C3.67 22 3.34 22 3 22 C3 18.04 3 14.08 3 10 C2.34 10 1.68 10 1 10 C1 9.01 1 8.02 1 7 C0.34 7 -0.32 7 -1 7 C-1.66 5.35 -2.32 3.7 -3 2 C-2.01 1.34 -1.02 0.68 0 0 Z " fill="#F57020" transform="translate(576,774)"/>
<path d="M0 0 C10.56 0 21.12 0 32 0 C31.67 0.66 31.34 1.32 31 2 C29.02 2 27.04 2 25 2 C25.66 4.31 26.32 6.62 27 9 C26.443125 8.72285156 25.88625 8.44570313 25.3125 8.16015625 C20.10180741 5.68683764 15.75283447 4.41838796 10 4 C10 3.67 10 3.34 10 3 C11.60407328 2.97291433 13.2082785 2.95356517 14.8125 2.9375 C15.70582031 2.92589844 16.59914063 2.91429687 17.51953125 2.90234375 C20 3 20 3 23 4 C23 3.01 23 2.02 23 1 C15.41 1 7.82 1 0 1 C0 0.67 0 0.34 0 0 Z " fill="#FEE7CF" transform="translate(555,766)"/>
<path d="M0 0 C2.01822917 0.06510417 4.03645833 0.13020833 6.0546875 0.1953125 C6.0546875 2.1753125 6.0546875 4.1553125 6.0546875 6.1953125 C2.35130546 7.42977318 -1.09191668 7.64512524 -4.9453125 7.1953125 C-7.9453125 5.6953125 -7.9453125 5.6953125 -9.9453125 4.1953125 C-9.2853125 3.8653125 -8.6253125 3.5353125 -7.9453125 3.1953125 C-5.8203125 4.1328125 -5.8203125 4.1328125 -3.9453125 5.1953125 C-3.9453125 4.2053125 -3.9453125 3.2153125 -3.9453125 2.1953125 C-1.9453125 0.1953125 -1.9453125 0.1953125 0 0 Z " fill="#EC7830" transform="translate(609.9453125,802.8046875)"/>
<path d="M0 0 C1.32 0 2.64 0 4 0 C4 0.99 4 1.98 4 3 C5.98 3 7.96 3 10 3 C7.73538929 4.37494222 6.54345306 5.07991957 3.875 4.6875 C2 4 2 4 0 3 C0.309375 4.423125 0.309375 4.423125 0.625 5.875 C0.74875 6.90625 0.8725 7.9375 1 9 C-1 11 -1 11 -3.625 11.125 C-4.40875 11.08375 -5.1925 11.0425 -6 11 C-6.3125 8.1875 -6.3125 8.1875 -6 5 C-3.5625 3.25 -3.5625 3.25 -1 2 C-0.67 1.34 -0.34 0.68 0 0 Z " fill="#F4711F" transform="translate(562,773)"/>
<path d="M0 0 C1.66666667 0 3.33333333 0 5 0 C5.42925781 0.48082031 5.85851562 0.96164062 6.30078125 1.45703125 C8.56949306 3.51712588 10.16607913 3.49130384 13.1875 3.6875 C14.08855469 3.75324219 14.98960937 3.81898438 15.91796875 3.88671875 C16.60503906 3.92410156 17.29210937 3.96148438 18 4 C18 4.33 18 4.66 18 5 C15.69 5.33 13.38 5.66 11 6 C10.67 7.32 10.34 8.64 10 10 C7.03 9.01 4.06 8.02 1 7 C0.67 4.69 0.34 2.38 0 0 Z " fill="#F4701E" transform="translate(558,799)"/>
<path d="M0 0 C2.97 0.495 2.97 0.495 6 1 C6 1.66 6 2.32 6 3 C7.60407328 3.02708567 9.2082785 3.04643483 10.8125 3.0625 C12.15248047 3.07990234 12.15248047 3.07990234 13.51953125 3.09765625 C16.13413791 3.11009967 16.13413791 3.11009967 19 2 C19 2.99 19 3.98 19 5 C17.68 5 16.36 5 15 5 C15 5.99 15 6.98 15 8 C8.18461113 8.71740936 8.18461113 8.71740936 4.91015625 6.734375 C3.12678067 5.23181725 1.48880229 3.79586776 0 2 C0 1.34 0 0.68 0 0 Z " fill="#ED7227" transform="translate(715,802)"/>
<path d="M0 0 C0.66 0 1.32 0 2 0 C2.08708752 4.2498709 2.14042181 8.49951239 2.1875 12.75 C2.22520508 14.55984375 2.22520508 14.55984375 2.26367188 16.40625 C2.27333984 17.56640625 2.28300781 18.7265625 2.29296875 19.921875 C2.3086792 20.99018555 2.32438965 22.05849609 2.34057617 23.15917969 C1.95768863 26.35292836 1.24895828 27.73224629 -1 30 C-1.66 30 -2.32 30 -3 30 C-3 29.34 -3 28.68 -3 28 C-2.34 28 -1.68 28 -1 28 C-0.67 18.76 -0.34 9.52 0 0 Z " fill="#FEDBBF" transform="translate(619,771)"/>
<path d="M0 0 C2.97 0.495 2.97 0.495 6 1 C6 3.64 6 6.28 6 9 C5.34 8.67 4.68 8.34 4 8 C4 7.34 4 6.68 4 6 C-4.58 6.33 -13.16 6.66 -22 7 C-22 6.34 -22 5.68 -22 5 C-11.605 4.505 -11.605 4.505 -1 4 C-0.67 2.68 -0.34 1.36 0 0 Z " fill="#F6711C" transform="translate(579,756)"/>
<path d="M0 0 C3.50517667 3.61615852 3.37476332 6.66285559 3.3125 11.5625 C3.31572266 12.23474609 3.31894531 12.90699219 3.32226562 13.59960938 C3.28217649 17.26958778 3.08504922 18.87242617 1 22 C1 18.37 1 14.74 1 11 C-0.32 12.32 -1.64 13.64 -3 15 C-3.125 8.375 -3.125 8.375 -2 5 C-1.34 5 -0.68 5 0 5 C0 3.35 0 1.7 0 0 Z " fill="#EA7733" transform="translate(583,778)"/>
<path d="M0 0 C2.05119824 3.07679736 2.2809847 3.97326215 2.44921875 7.4921875 C2.49240234 8.36230469 2.53558594 9.23242188 2.58007812 10.12890625 C2.61552734 11.03511719 2.65097656 11.94132813 2.6875 12.875 C2.75807617 14.22271484 2.75807617 14.22271484 2.83007812 15.59765625 C3.02337212 19.88814914 3.16394321 23.81680562 2 28 C1.34 28 0.68 28 0 28 C0 18.76 0 9.52 0 0 Z " fill="#FEE0C5" transform="translate(661,781)"/>
<path d="M0 0 C-0.25 1.875 -0.25 1.875 -1 4 C-3.0625 5.25 -3.0625 5.25 -5 6 C-5 7.65 -5 9.3 -5 11 C-3.68 11.33 -2.36 11.66 -1 12 C-0.67 11.01 -0.34 10.02 0 9 C0.33 9.99 0.66 10.98 1 12 C0.67 12.66 0.34 13.32 0 14 C-2.97 14 -5.94 14 -9 14 C-8.76641617 8.27719624 -7.27521439 5.53617333 -3.47265625 1.28515625 C-2 0 -2 0 0 0 Z " fill="#E47F42" transform="translate(562,772)"/>
<path d="M0 0 C1.08410156 -0.00257813 2.16820312 -0.00515625 3.28515625 -0.0078125 C5.9375 0.125 5.9375 0.125 6.9375 1.125 C6.97842937 3.45797433 6.97991723 5.79205225 6.9375 8.125 C3.9675 7.795 0.9975 7.465 -2.0625 7.125 C-2.0625 6.795 -2.0625 6.465 -2.0625 6.125 C0.2475 6.125 2.5575 6.125 4.9375 6.125 C4.9375 4.805 4.9375 3.485 4.9375 2.125 C4.256875 2.29 3.57625 2.455 2.875 2.625 C-0.4772471 3.19559525 -3.66640904 3.125 -7.0625 3.125 C-9.37286915 3.55354995 -9.37286915 3.55354995 -11.0625 4.125 C-7.40191715 0.29802702 -5.30038586 -0.01263501 0 0 Z " fill="#E17836" transform="translate(684.0625,770.875)"/>
<path d="M0 0 C3.3 0 6.6 0 10 0 C10.0493651 4.94790177 10.08570269 9.89566083 10.10986328 14.84375 C10.11993317 16.52769466 10.13358988 18.21162179 10.15087891 19.89550781 C10.17508426 22.31319501 10.18647296 24.73065143 10.1953125 27.1484375 C10.20563507 27.9036972 10.21595764 28.65895691 10.22659302 29.43710327 C10.22699318 31.2929398 10.12222716 33.1481928 10 35 C9.34 35.66 8.68 36.32 8 37 C7.01 36.67 6.02 36.34 5 36 C5.4844458 35.65541748 5.9688916 35.31083496 6.46801758 34.95581055 C8.71416758 32.08825554 8.47905281 29.20614858 8.51171875 25.70703125 C8.52966995 25.00100266 8.54762115 24.29497406 8.56611633 23.56755066 C8.62023178 21.31592759 8.65411722 19.06451657 8.6875 16.8125 C8.72067219 15.28447569 8.75516177 13.75647937 8.79101562 12.22851562 C8.87595825 8.48583011 8.94276248 4.74320759 9 1 C6.03 1 3.06 1 0 1 C0 0.67 0 0.34 0 0 Z " fill="#FFE5CD" transform="translate(695,770)"/>
<path d="M0 0 C1.65 0 3.3 0 5 0 C5 2.31 5 4.62 5 7 C2.36 7 -0.28 7 -3 7 C-3.33 6.01 -3.66 5.02 -4 4 C-3.34 4 -2.68 4 -2 4 C-1.34 2.68 -0.68 1.36 0 0 Z " fill="#38383A" transform="translate(363,785)"/>
<path d="M0 0 C0.33 0 0.66 0 1 0 C1 8.25 1 16.5 1 25 C1.66 25 2.32 25 3 25 C3.33 26.65 3.66 28.3 4 30 C5.98 30 7.96 30 10 30 C10 30.33 10 30.66 10 31 C3.56181906 31.36442534 3.56181906 31.36442534 1.2878418 29.8894043 C-0.60618796 27.11065619 -0.33824822 24.91761906 -0.29296875 21.58203125 C-0.28330078 20.32841797 -0.27363281 19.07480469 -0.26367188 17.78320312 C-0.23853516 16.47287109 -0.21339844 15.16253906 -0.1875 13.8125 C-0.17244967 12.47722837 -0.15876187 11.14194063 -0.14648438 9.80664062 C-0.11107694 6.53735424 -0.0616889 3.26887907 0 0 Z " fill="#FEDABD" transform="translate(606,771)"/>
<path d="M0 0 C5.6 2.2 5.6 2.2 7 5 C5.68 5 4.36 5 3 5 C3 4.34 3 3.68 3 3 C-1.95 3 -6.9 3 -12 3 C-11.67 5.31 -11.34 7.62 -11 10 C-11.66 10 -12.32 10 -13 10 C-13 7.36 -13 4.72 -13 2 C-8.65833656 -0.46551476 -4.89707312 -0.5676538 0 0 Z " fill="#E38248" transform="translate(651,770)"/>
<path d="M0 0 C0.66 0 1.32 0 2 0 C2 0.99 2 1.98 2 3 C2.66 3 3.32 3 4 3 C4 7.29 4 11.58 4 16 C2.02 16.99 2.02 16.99 0 18 C0.165 17.34 0.33 16.68 0.5 16 C1.4032273 10.58063618 1.3371279 5.34851158 0 0 Z " fill="#E57A38" transform="translate(575,781)"/>
<path d="M0 0 C0.93065133 2.60582371 1.14917407 3.64198224 0.0625 6.25 C-0.288125 6.8275 -0.63875 7.405 -1 8 C-1.66 8 -2.32 8 -3 8 C-3.309375 8.639375 -3.61875 9.27875 -3.9375 9.9375 C-5 12 -5 12 -6 13 C-7.99958364 13.04080783 -10.00045254 13.04254356 -12 13 C-11.278125 12.443125 -10.55625 11.88625 -9.8125 11.3125 C-3.89270986 6.46122709 -3.89270986 6.46122709 0 0 Z " fill="#FEF1DA" transform="translate(587,406)"/>
<path d="M0 0 C0.66 0 1.32 0 2 0 C2.33 2.97 2.66 5.94 3 9 C-0.69541586 9.95024979 -3.30458414 9.95024979 -7 9 C-7 10.32 -7 11.64 -7 13 C-7.99 12.67 -8.98 12.34 -10 12 C-9.125 8.125 -9.125 8.125 -8 7 C-6.47480724 7.08937803 -4.95318071 7.24537146 -3.4375 7.4375 C-2.19806641 7.59025391 -2.19806641 7.59025391 -0.93359375 7.74609375 C-0.29550781 7.82988281 0.34257813 7.91367187 1 8 C0.67 5.36 0.34 2.72 0 0 Z " fill="#FDE3CB" transform="translate(690,771)"/>
<path d="M0 0 C1.2065625 0.0309375 1.2065625 0.0309375 2.4375 0.0625 C2.4375 1.0525 2.4375 2.0425 2.4375 3.0625 C-0.80184303 5.91601557 -4.26370583 7.92720894 -8.5625 8.375 C-9.5525 8.2203125 -9.5525 8.2203125 -10.5625 8.0625 C-9.9025 7.4025 -9.2425 6.7425 -8.5625 6.0625 C-7.2425 6.0625 -5.9225 6.0625 -4.5625 6.0625 C-4.5625 5.4025 -4.5625 4.7425 -4.5625 4.0625 C-3.5725 4.0625 -2.5825 4.0625 -1.5625 4.0625 C-1.5625 3.4025 -1.5625 2.7425 -1.5625 2.0625 C-2.2225 1.7325 -2.8825 1.4025 -3.5625 1.0625 C-2.5625 0.0625 -2.5625 0.0625 0 0 Z " fill="#E57D3D" transform="translate(580.5625,410.9375)"/>
<path d="M0 0 C-4.36988258 3.5895464 -7.66467599 4.13599111 -13.25 4.0625 C-14.14203125 4.05347656 -15.0340625 4.04445313 -15.953125 4.03515625 C-16.62859375 4.02355469 -17.3040625 4.01195312 -18 4 C-18 3.34 -18 2.68 -18 2 C-15.93827387 1.66191314 -13.8755797 1.32972639 -11.8125 1 C-10.66394531 0.814375 -9.51539063 0.62875 -8.33203125 0.4375 C-5.49584607 0.06510523 -2.85280436 -0.08596021 0 0 Z " fill="#E88244" transform="translate(700,806)"/>
<path d="M0 0 C0.66 0 1.32 0 2 0 C2.12375 0.969375 2.2475 1.93875 2.375 2.9375 C2.684375 4.4534375 2.684375 4.4534375 3 6 C3.66 6.33 4.32 6.66 5 7 C4.6875 8.9375 4.6875 8.9375 4 11 C3.01 11.33 2.02 11.66 1 12 C0.67 11.01 0.34 10.02 0 9 C-0.33 8.34 -0.66 7.68 -1 7 C-0.71758117 4.6599583 -0.38749213 2.32495277 0 0 Z " fill="#EC7426" transform="translate(698,794)"/>
<path d="M0 0 C8.19256018 0.35010941 8.19256018 0.35010941 11.5625 3.0625 C12.036875 3.701875 12.51125 4.34125 13 5 C10.625 5.125 10.625 5.125 8 5 C7.34 4.34 6.68 3.68 6 3 C5.67 3.33 5.34 3.66 5 4 C2.66702567 4.04092937 0.33294775 4.04241723 -2 4 C-1.34 2.68 -0.68 1.36 0 0 Z " fill="#EE742C" transform="translate(570,354)"/>
<path d="M0 0 C0.5775 0.763125 1.155 1.52625 1.75 2.3125 C5.36535164 6.66716851 5.36535164 6.66716851 10.578125 8.29296875 C11.45984375 8.25816406 12.3415625 8.22335937 13.25 8.1875 C14.58804688 8.14689453 14.58804688 8.14689453 15.953125 8.10546875 C16.62859375 8.07066406 17.3040625 8.03585937 18 8 C18 8.66 18 9.32 18 10 C5.41836513 10.60445577 5.41836513 10.60445577 1 7 C0.125 3.3125 0.125 3.3125 0 0 Z " fill="#FDE8D0" transform="translate(714,801)"/>
<path d="M0 0 C6.38805359 -0.5323378 11.78673756 -0.0505924 17 4 C18.22265625 6.140625 18.22265625 6.140625 19 8 C18.236875 7.505 17.47375 7.01 16.6875 6.5 C14.07636249 4.75631692 14.07636249 4.75631692 11 5 C10.67 4.34 10.34 3.68 10 3 C7.65092125 2.31068656 7.65092125 2.31068656 4.9375 1.875 C4.01839844 1.70742188 3.09929688 1.53984375 2.15234375 1.3671875 C1.44207031 1.24601563 0.73179687 1.12484375 0 1 C0 0.67 0 0.34 0 0 Z " fill="#E5874C" transform="translate(564,770)"/>
<path d="M0 0 C0.66 0.66 1.32 1.32 2 2 C-1.625 6.875 -1.625 6.875 -5 8 C-6.125 4.25 -6.125 4.25 -5 2 C-3.35636866 1.27840576 -1.68949614 0.60648579 0 0 Z " fill="#EC762F" transform="translate(582,800)"/>
<path d="M0 0 C2.97 0 5.94 0 9 0 C9 0.33 9 0.66 9 1 C7.02 1 5.04 1 3 1 C3 1.66 3 2.32 3 3 C5.31 3.33 7.62 3.66 10 4 C10 4.33 10 4.66 10 5 C7.03 5 4.06 5 1 5 C0.67 3.35 0.34 1.7 0 0 Z " fill="#FEE9D5" transform="translate(737,766)"/>
<path d="M0 0 C2 2 2 2 2.265625 4.49609375 C2.26046875 5.46675781 2.2553125 6.43742187 2.25 7.4375 C2.25515625 8.40558594 2.2603125 9.37367188 2.265625 10.37109375 C2 13 2 13 0 16 C-0.66 13.69 -1.32 11.38 -2 9 C-1.34 8.67 -0.68 8.34 0 8 C0 5.36 0 2.72 0 0 Z " fill="#EC752D" transform="translate(586,393)"/>
<path d="M0 0 C-0.33 1.65 -0.66 3.3 -1 5 C-1.66 4.67 -2.32 4.34 -3 4 C-4.87056791 3.7724985 -6.74685958 3.59037189 -8.625 3.4375 C-9.62789062 3.35371094 -10.63078125 3.26992188 -11.6640625 3.18359375 C-12.43492187 3.12300781 -13.20578125 3.06242188 -14 3 C-14 2.34 -14 1.68 -14 1 C-13.07767578 1.01740234 -13.07767578 1.01740234 -12.13671875 1.03515625 C-10.92435547 1.04869141 -10.92435547 1.04869141 -9.6875 1.0625 C-8.88699219 1.07410156 -8.08648438 1.08570313 -7.26171875 1.09765625 C-4.67983261 0.98617585 -2.57562005 0 0 0 Z " fill="#E57938" transform="translate(696,800)"/>
<path d="M0 0 C1.65 0 3.3 0 5 0 C2.47043472 3.0916909 -0.22454612 3.90931332 -4 5 C-4 4.34 -4 3.68 -4 3 C-4.66 3 -5.32 3 -6 3 C-6 2.34 -6 1.68 -6 1 C-3.03 1.495 -3.03 1.495 0 2 C0 1.34 0 0.68 0 0 Z " fill="#EA7531" transform="translate(644,515)"/>
<path d="M0 0 C3.36591866 1.44253657 5.51047079 3.33264727 8 6 C6.68 6 5.36 6 4 6 C3.34 5.34 2.68 4.68 2 4 C-0.10820797 4.3185177 -0.10820797 4.3185177 -2 5 C-2 4.01 -2 3.02 -2 2 C-1.34 2 -0.68 2 0 2 C0 1.34 0 0.68 0 0 Z " fill="#E67836" transform="translate(648,256)"/>
<path d="M0 0 C2.29160319 -0.02692484 4.58329546 -0.04636124 6.875 -0.0625 C8.15117188 -0.07410156 9.42734375 -0.08570313 10.7421875 -0.09765625 C14 0 14 0 16 1 C16 1.66 16 2.32 16 3 C10.72 2.34 5.44 1.68 0 1 C0 0.67 0 0.34 0 0 Z " fill="#FDEDD7" transform="translate(608,243)"/>
<path d="M0 0 C0.33 0 0.66 0 1 0 C1 2.97 1 5.94 1 9 C-2.47325181 10.1577506 -5.36067448 10.06866652 -9 10 C-6.03312999 8.35173889 -3.34373475 7.55728913 0 7 C0 4.69 0 2.38 0 0 Z " fill="#FEF0DA" transform="translate(693,792)"/>
<path d="M0 0 C0.66 0.99 1.32 1.98 2 3 C-0.48434437 5.34290892 -1.77731593 5.97982934 -5.234375 6.29296875 C-6.39453125 6.25816406 -7.5546875 6.22335937 -8.75 6.1875 C-9.92046875 6.16042969 -11.0909375 6.13335937 -12.296875 6.10546875 C-13.18890625 6.07066406 -14.0809375 6.03585937 -15 6 C-15 5.67 -15 5.34 -15 5 C-13.87851562 4.96132813 -13.87851562 4.96132813 -12.734375 4.921875 C-6.59307795 4.71313116 -6.59307795 4.71313116 -1.3125 1.9375 C-0.6628125 0.9784375 -0.6628125 0.9784375 0 0 Z " fill="#E07636" transform="translate(610,457)"/>
<path d="M0 0 C0.66 0 1.32 0 2 0 C3.75163456 3.77222089 4.22490027 6.666639 4.125 10.8125 C4.10695313 11.78832031 4.08890625 12.76414062 4.0703125 13.76953125 C4.03550781 14.87361328 4.03550781 14.87361328 4 16 C3.67 16 3.34 16 3 16 C1.91681831 10.6787385 0.847126 5.36513131 0 0 Z " fill="#FCE4CE" transform="translate(587,364)"/>
<path d="M0 0 C2.97 0 5.94 0 9 0 C9 0.66 9 1.32 9 2 C4.545 2.495 4.545 2.495 0 3 C0 2.01 0 1.02 0 0 Z " fill="#FEE4CB" transform="translate(738,809)"/>
<path d="M0 0 C0.99 0.309375 1.98 0.61875 3 0.9375 C6.97731122 2.08433207 10.88767379 2.56712356 15 3 C15 3.33 15 3.66 15 4 C4.27475338 4.56229448 4.27475338 4.56229448 0 1 C0 0.67 0 0.34 0 0 Z " fill="#E48C53" transform="translate(559,806)"/>
<path d="M0 0 C0.33 0.99 0.66 1.98 1 3 C-1.52475462 4.26237731 -3.31200466 4.09856404 -6.125 4.0625 C-7.03507812 4.05347656 -7.94515625 4.04445313 -8.8828125 4.03515625 C-9.58148438 4.02355469 -10.28015625 4.01195312 -11 4 C-11 3.67 -11 3.34 -11 3 C-10.071875 2.87625 -9.14375 2.7525 -8.1875 2.625 C-5.03685323 2.00722612 -3.08513228 0 0 0 Z " fill="#363637" transform="translate(293,805)"/>
<path d="M0 0 C2.79828356 0.38597015 3.8205884 0.80136573 5.75 2.9375 C7 5 7 5 7 7 C6.01 7 5.02 7 4 7 C4 6.34 4 5.68 4 5 C3.34 4.67 2.68 4.34 2 4 C0.875 1.9375 0.875 1.9375 0 0 Z " fill="#49494B" transform="translate(289,800)"/>
<path d="M0 0 C4.95 0.99 4.95 0.99 10 2 C10 2.33 10 2.66 10 3 C8.88625 3.309375 7.7725 3.61875 6.625 3.9375 C3.2054845 4.82326483 3.2054845 4.82326483 1 6 C0.67 4.02 0.34 2.04 0 0 Z " fill="#EE8546" transform="translate(562,776)"/>
<path d="M0 0 C1.32 0.33 2.64 0.66 4 1 C3.25 6.75 3.25 6.75 1 9 C0.67 6.03 0.34 3.06 0 0 Z " fill="#E9722B" transform="translate(668,482)"/>
<path d="M0 0 C0.103125 0.639375 0.20625 1.27875 0.3125 1.9375 C0.539375 2.618125 0.76625 3.29875 1 4 C1.99 4.33 2.98 4.66 4 5 C4 5.66 4 6.32 4 7 C2.68 6.67 1.36 6.34 0 6 C-0.38218767 4.34385343 -0.71395102 2.67542976 -1 1 C-0.67 0.67 -0.34 0.34 0 0 Z " fill="#FDE4CB" transform="translate(680,794)"/>
<path d="M0 0 C0.66 0 1.32 0 2 0 C2.33 1.65 2.66 3.3 3 5 C4.98 5 6.96 5 9 5 C9 5.33 9 5.66 9 6 C5.625 6.125 5.625 6.125 2 6 C1.34 5.34 0.68 4.68 0 4 C0 2.68 0 1.36 0 0 Z " fill="#FEEDD9" transform="translate(607,796)"/>
<path d="M0 0 C0.99 0.33 1.98 0.66 3 1 C2.34 2.32 1.68 3.64 1 5 C-0.65 5 -2.3 5 -4 5 C-2.68 3.35 -1.36 1.7 0 0 Z " fill="#4F4F50" transform="translate(386,750)"/>
<path d="M0 0 C1 4 1 4 0.3125 6.1875 C-1 8 -1 8 -5 9 C-3.35 6.03 -1.7 3.06 0 0 Z " fill="#FCE8D3" transform="translate(587,406)"/>
<path d="M0 0 C1.3479743 0.63654342 2.68596724 1.29605388 4 2 C-2.0546875 2.1953125 -2.0546875 2.1953125 -4 2 C-4.66 1.34 -5.32 0.68 -6 0 C-3.44901433 -1.27549283 -2.66705587 -0.86287102 0 0 Z " fill="#E5864C" transform="translate(726,808)"/>
<path d="M0 0 C1.485 0.99 1.485 0.99 3 2 C2.01 3.485 2.01 3.485 1 5 C1.66 5.33 2.32 5.66 3 6 C2.34 6.66 1.68 7.32 1 8 C-1 5 -1 5 -0.625 2.3125 C-0.41875 1.549375 -0.2125 0.78625 0 0 Z " fill="#414143" transform="translate(443,633)"/>
</svg>
